<svg xmlns="http://www.w3.org/2000/svg" viewBox="0 0 64 64" width="64" height="64" fill="none">
  <!-- Gökkuşağı -->
  <path d="M11 25 A 15 15 0 0 1 41 25" stroke="#E76F3C" stroke-width="3" stroke-linecap="round"/>
  <path d="M15.5 25 A 10.5 10.5 0 0 1 36.5 25" stroke="#F2C94C" stroke-width="3" stroke-linecap="round"/>
  <path d="M20 25 A 6 6 0 0 1 32 25" stroke="#2F80ED" stroke-width="3" stroke-linecap="round"/>

  <!-- Gülen yüz -->
  <circle cx="26" cy="38" r="13" stroke="#E76F3C" stroke-width="2.4" fill="none"/>
  <circle cx="21" cy="35" r="1.3" fill="#E76F3C"/>
  <circle cx="31" cy="35" r="1.3" fill="#E76F3C"/>
  <path d="M19.5 41 Q26 47.5 32.5 41" stroke="#E76F3C" stroke-width="2.4" stroke-linecap="round" fill="none"/>

  <!-- Devre / beyin düğümleri -->
  <g stroke="#E76F3C" stroke-width="2" stroke-linecap="round" fill="#FFFFFF">
    <path d="M46.5 39.5 L50.5 32" fill="none"/>
    <circle cx="51" cy="30.4" r="1.9"/>
    <path d="M49 41 L54.5 36" fill="none"/>
    <circle cx="55.5" cy="34.8" r="1.9"/>
    <path d="M49 44 L53.5 45" fill="none"/>
    <circle cx="54.8" cy="45" r="1.5"/>
  </g>

  <!-- Büyüteç: beyaz mask -->
  <circle cx="45" cy="45" r="9" fill="#FFFFFF"/>
  <!-- Sap -->
  <path d="M51.4 51.4 L57 57" stroke="#E76F3C" stroke-width="4" stroke-linecap="round"/>
  <!-- Lens çerçeve -->
  <circle cx="45" cy="45" r="9" stroke="#E76F3C" stroke-width="2.4" fill="none"/>
  <!-- Kalp -->
  <path d="M45 47.6 C 41.4 44.5 40.9 42.1 43 41 C 44.2 40.4 45 41.4 45 42.3 C 45 41.4 45.8 40.4 47 41 C 49.1 42.1 48.6 44.5 45 47.6 Z" stroke="#E76F3C" stroke-width="1.9" stroke-linejoin="round" fill="none"/>
</svg>
